<mxfile host="Electron" agent="Mozilla/5.0 (Windows NT 10.0; Win64; x64) AppleWebKit/537.36 (KHTML, like Gecko) draw.io/26.1.1 Chrome/132.0.6834.210 Electron/34.3.3 Safari/537.36" version="26.1.1">
  <diagram name="Σελίδα-1" id="ofaxyE9AYL68ncU7um-d">
    <mxGraphModel dx="1332" dy="532" grid="0" gridSize="10" guides="1" tooltips="1" connect="1" arrows="1" fold="1" page="1" pageScale="1" pageWidth="827" pageHeight="1169" math="0" shadow="0">
      <root>
        <mxCell id="0" />
        <mxCell id="1" parent="0" />
        <mxCell id="5nzVAUaAz8LjXCYsZ58y-1" value="Actor" style="shape=umlActor;verticalLabelPosition=bottom;verticalAlign=top;html=1;outlineConnect=0;" vertex="1" parent="1">
          <mxGeometry x="40" y="23" width="30" height="60" as="geometry" />
        </mxCell>
        <mxCell id="5nzVAUaAz8LjXCYsZ58y-2" value="" style="endArrow=none;dashed=1;html=1;dashPattern=1 3;strokeWidth=2;rounded=0;" edge="1" parent="1">
          <mxGeometry width="50" height="50" relative="1" as="geometry">
            <mxPoint x="55" y="623" as="sourcePoint" />
            <mxPoint x="55" y="107" as="targetPoint" />
          </mxGeometry>
        </mxCell>
        <mxCell id="5nzVAUaAz8LjXCYsZ58y-3" value="reportform" style="rounded=0;whiteSpace=wrap;html=1;" vertex="1" parent="1">
          <mxGeometry x="107" y="33" width="123" height="20" as="geometry" />
        </mxCell>
        <mxCell id="5nzVAUaAz8LjXCYsZ58y-4" value="camerasystem" style="rounded=0;whiteSpace=wrap;html=1;" vertex="1" parent="1">
          <mxGeometry x="245" y="33" width="123" height="20" as="geometry" />
        </mxCell>
        <mxCell id="5nzVAUaAz8LjXCYsZ58y-5" value="reportcontroller" style="rounded=0;whiteSpace=wrap;html=1;" vertex="1" parent="1">
          <mxGeometry x="387" y="33" width="123" height="20" as="geometry" />
        </mxCell>
        <mxCell id="5nzVAUaAz8LjXCYsZ58y-6" value="report" style="rounded=0;whiteSpace=wrap;html=1;" vertex="1" parent="1">
          <mxGeometry x="524" y="33" width="123" height="20" as="geometry" />
        </mxCell>
        <mxCell id="5nzVAUaAz8LjXCYsZ58y-7" value="" style="endArrow=none;dashed=1;html=1;dashPattern=1 3;strokeWidth=2;rounded=0;entryX=0.5;entryY=1;entryDx=0;entryDy=0;" edge="1" parent="1" source="5nzVAUaAz8LjXCYsZ58y-12" target="5nzVAUaAz8LjXCYsZ58y-3">
          <mxGeometry width="50" height="50" relative="1" as="geometry">
            <mxPoint x="169" y="631" as="sourcePoint" />
            <mxPoint x="65" y="117" as="targetPoint" />
          </mxGeometry>
        </mxCell>
        <mxCell id="5nzVAUaAz8LjXCYsZ58y-8" value="" style="endArrow=none;dashed=1;html=1;dashPattern=1 3;strokeWidth=2;rounded=0;" edge="1" parent="1" source="5nzVAUaAz8LjXCYsZ58y-17" target="5nzVAUaAz8LjXCYsZ58y-4">
          <mxGeometry width="50" height="50" relative="1" as="geometry">
            <mxPoint x="311" y="634" as="sourcePoint" />
            <mxPoint x="179" y="63" as="targetPoint" />
          </mxGeometry>
        </mxCell>
        <mxCell id="5nzVAUaAz8LjXCYsZ58y-9" value="" style="endArrow=none;dashed=1;html=1;dashPattern=1 3;strokeWidth=2;rounded=0;entryX=0.5;entryY=1;entryDx=0;entryDy=0;" edge="1" parent="1" source="5nzVAUaAz8LjXCYsZ58y-190" target="5nzVAUaAz8LjXCYsZ58y-5">
          <mxGeometry width="50" height="50" relative="1" as="geometry">
            <mxPoint x="459" y="761" as="sourcePoint" />
            <mxPoint x="317" y="63" as="targetPoint" />
          </mxGeometry>
        </mxCell>
        <mxCell id="5nzVAUaAz8LjXCYsZ58y-10" value="" style="endArrow=none;dashed=1;html=1;dashPattern=1 3;strokeWidth=2;rounded=0;entryX=0.5;entryY=1;entryDx=0;entryDy=0;" edge="1" parent="1" source="5nzVAUaAz8LjXCYsZ58y-108" target="5nzVAUaAz8LjXCYsZ58y-6">
          <mxGeometry width="50" height="50" relative="1" as="geometry">
            <mxPoint x="597" y="668" as="sourcePoint" />
            <mxPoint x="459" y="63" as="targetPoint" />
          </mxGeometry>
        </mxCell>
        <mxCell id="5nzVAUaAz8LjXCYsZ58y-13" value="" style="endArrow=none;dashed=1;html=1;dashPattern=1 3;strokeWidth=2;rounded=0;entryX=0.5;entryY=1;entryDx=0;entryDy=0;" edge="1" parent="1" target="5nzVAUaAz8LjXCYsZ58y-12">
          <mxGeometry width="50" height="50" relative="1" as="geometry">
            <mxPoint x="169" y="631" as="sourcePoint" />
            <mxPoint x="169" y="53" as="targetPoint" />
          </mxGeometry>
        </mxCell>
        <mxCell id="5nzVAUaAz8LjXCYsZ58y-12" value="" style="rounded=0;whiteSpace=wrap;html=1;direction=south;" vertex="1" parent="1">
          <mxGeometry x="162.75" y="91" width="11.5" height="538" as="geometry" />
        </mxCell>
        <mxCell id="5nzVAUaAz8LjXCYsZ58y-15" value="" style="endArrow=classic;html=1;rounded=0;entryX=0.093;entryY=1.065;entryDx=0;entryDy=0;entryPerimeter=0;" edge="1" parent="1" target="5nzVAUaAz8LjXCYsZ58y-12">
          <mxGeometry width="50" height="50" relative="1" as="geometry">
            <mxPoint x="58" y="139" as="sourcePoint" />
            <mxPoint x="119" y="145" as="targetPoint" />
          </mxGeometry>
        </mxCell>
        <mxCell id="5nzVAUaAz8LjXCYsZ58y-16" value="createReportForm()" style="text;html=1;align=center;verticalAlign=middle;resizable=0;points=[];autosize=1;strokeColor=none;fillColor=none;" vertex="1" parent="1">
          <mxGeometry x="46" y="113" width="123" height="26" as="geometry" />
        </mxCell>
        <mxCell id="5nzVAUaAz8LjXCYsZ58y-18" value="" style="endArrow=classic;html=1;rounded=0;entryX=0.138;entryY=0.565;entryDx=0;entryDy=0;entryPerimeter=0;exitX=0.221;exitY=-0.065;exitDx=0;exitDy=0;exitPerimeter=0;" edge="1" parent="1" source="5nzVAUaAz8LjXCYsZ58y-12" target="5nzVAUaAz8LjXCYsZ58y-17">
          <mxGeometry width="50" height="50" relative="1" as="geometry">
            <mxPoint x="174.25" y="227" as="sourcePoint" />
            <mxPoint x="294.25" y="224" as="targetPoint" />
          </mxGeometry>
        </mxCell>
        <mxCell id="5nzVAUaAz8LjXCYsZ58y-19" value="activate()" style="text;html=1;align=center;verticalAlign=middle;resizable=0;points=[];autosize=1;strokeColor=none;fillColor=none;" vertex="1" parent="1">
          <mxGeometry x="206" y="177" width="67" height="26" as="geometry" />
        </mxCell>
        <mxCell id="5nzVAUaAz8LjXCYsZ58y-84" value="" style="endArrow=classic;html=1;rounded=0;elbow=horizontal;" edge="1" parent="1">
          <mxGeometry width="50" height="50" relative="1" as="geometry">
            <mxPoint x="320" y="217" as="sourcePoint" />
            <mxPoint x="320" y="257" as="targetPoint" />
            <Array as="points">
              <mxPoint x="388" y="234" />
            </Array>
          </mxGeometry>
        </mxCell>
        <mxCell id="5nzVAUaAz8LjXCYsZ58y-85" value="requestPermission()" style="text;html=1;align=center;verticalAlign=middle;resizable=0;points=[];autosize=1;strokeColor=none;fillColor=none;" vertex="1" parent="1">
          <mxGeometry x="321" y="192" width="125" height="26" as="geometry" />
        </mxCell>
        <mxCell id="5nzVAUaAz8LjXCYsZ58y-86" value="alt" style="shape=umlFrame;whiteSpace=wrap;html=1;pointerEvents=0;recursiveResize=0;container=1;collapsible=0;width=160;" vertex="1" parent="1">
          <mxGeometry x="34" y="267" width="595" height="262" as="geometry" />
        </mxCell>
        <mxCell id="5nzVAUaAz8LjXCYsZ58y-88" value="takePhoto()" style="text;whiteSpace=wrap;html=1;" vertex="1" parent="5nzVAUaAz8LjXCYsZ58y-86">
          <mxGeometry x="292" y="8" width="90" height="36" as="geometry" />
        </mxCell>
        <mxCell id="5nzVAUaAz8LjXCYsZ58y-119" value="[permissionGranted]" style="text;html=1;align=center;verticalAlign=middle;resizable=0;points=[];autosize=1;strokeColor=none;fillColor=none;" vertex="1" parent="5nzVAUaAz8LjXCYsZ58y-86">
          <mxGeometry x="136" y="30" width="126" height="26" as="geometry" />
        </mxCell>
        <mxCell id="5nzVAUaAz8LjXCYsZ58y-93" value="" style="endArrow=classic;html=1;rounded=0;entryX=0.586;entryY=0.283;entryDx=0;entryDy=0;entryPerimeter=0;elbow=horizontal;exitX=0.674;exitY=0.022;exitDx=0;exitDy=0;exitPerimeter=0;" edge="1" parent="5nzVAUaAz8LjXCYsZ58y-86">
          <mxGeometry width="50" height="50" relative="1" as="geometry">
            <mxPoint x="284.99699999999996" y="63.79600000000005" as="sourcePoint" />
            <mxPoint x="281.9955" y="30.003999999999905" as="targetPoint" />
            <Array as="points">
              <mxPoint x="333" y="43.98000000000002" />
            </Array>
          </mxGeometry>
        </mxCell>
        <mxCell id="5nzVAUaAz8LjXCYsZ58y-91" value="return photo" style="text;html=1;align=center;verticalAlign=middle;resizable=0;points=[];autosize=1;strokeColor=none;fillColor=none;" vertex="1" parent="5nzVAUaAz8LjXCYsZ58y-86">
          <mxGeometry x="157.5" y="56" width="83" height="26" as="geometry" />
        </mxCell>
        <mxCell id="5nzVAUaAz8LjXCYsZ58y-123" value="[!permissionGranted]" style="text;html=1;align=center;verticalAlign=middle;resizable=0;points=[];autosize=1;strokeColor=none;fillColor=none;" vertex="1" parent="5nzVAUaAz8LjXCYsZ58y-86">
          <mxGeometry x="-9" y="126.5" width="129" height="26" as="geometry" />
        </mxCell>
        <mxCell id="5nzVAUaAz8LjXCYsZ58y-125" value="display" style="text;html=1;align=center;verticalAlign=middle;resizable=0;points=[];autosize=1;strokeColor=none;fillColor=none;" vertex="1" parent="5nzVAUaAz8LjXCYsZ58y-86">
          <mxGeometry x="182" y="84" width="55" height="26" as="geometry" />
        </mxCell>
        <mxCell id="5nzVAUaAz8LjXCYsZ58y-126" value="opt" style="shape=umlFrame;whiteSpace=wrap;html=1;pointerEvents=0;recursiveResize=0;container=1;collapsible=0;width=160;" vertex="1" parent="5nzVAUaAz8LjXCYsZ58y-86">
          <mxGeometry x="114" y="126.5" width="320" height="111.5" as="geometry" />
        </mxCell>
        <mxCell id="5nzVAUaAz8LjXCYsZ58y-134" value="[ο χρήστης δίνει άδεια]" style="text;html=1;align=center;verticalAlign=middle;resizable=0;points=[];autosize=1;strokeColor=none;fillColor=none;" vertex="1" parent="5nzVAUaAz8LjXCYsZ58y-126">
          <mxGeometry x="-7" y="29.5" width="138" height="26" as="geometry" />
        </mxCell>
        <mxCell id="5nzVAUaAz8LjXCYsZ58y-141" value="requestPermission()&lt;div&gt;&lt;br&gt;&lt;/div&gt;" style="text;html=1;align=center;verticalAlign=middle;resizable=0;points=[];autosize=1;strokeColor=none;fillColor=none;" vertex="1" parent="5nzVAUaAz8LjXCYsZ58y-126">
          <mxGeometry x="173" y="2.5" width="125" height="41" as="geometry" />
        </mxCell>
        <mxCell id="5nzVAUaAz8LjXCYsZ58y-142" value="" style="endArrow=classic;html=1;rounded=0;entryX=0.581;entryY=0.217;entryDx=0;entryDy=0;entryPerimeter=0;elbow=horizontal;exitX=0.641;exitY=-0.043;exitDx=0;exitDy=0;exitPerimeter=0;" edge="1" parent="5nzVAUaAz8LjXCYsZ58y-126">
          <mxGeometry width="50" height="50" relative="1" as="geometry">
            <mxPoint x="168" y="83.5" as="sourcePoint" />
            <mxPoint x="165" y="55.5" as="targetPoint" />
            <Array as="points">
              <mxPoint x="231" y="73.68" />
            </Array>
          </mxGeometry>
        </mxCell>
        <mxCell id="5nzVAUaAz8LjXCYsZ58y-143" value="takephoto()" style="text;html=1;align=center;verticalAlign=middle;resizable=0;points=[];autosize=1;strokeColor=none;fillColor=none;" vertex="1" parent="5nzVAUaAz8LjXCYsZ58y-126">
          <mxGeometry x="192" y="45.5" width="79" height="26" as="geometry" />
        </mxCell>
        <mxCell id="5nzVAUaAz8LjXCYsZ58y-145" value="photo" style="text;html=1;align=center;verticalAlign=middle;resizable=0;points=[];autosize=1;strokeColor=none;fillColor=none;" vertex="1" parent="5nzVAUaAz8LjXCYsZ58y-126">
          <mxGeometry x="58" y="71.5" width="48" height="26" as="geometry" />
        </mxCell>
        <mxCell id="5nzVAUaAz8LjXCYsZ58y-90" value="" style="html=1;verticalAlign=bottom;endArrow=open;dashed=1;endSize=8;curved=0;rounded=0;exitX=0.443;exitY=1.261;exitDx=0;exitDy=0;exitPerimeter=0;entryX=0.478;entryY=0.109;entryDx=0;entryDy=0;entryPerimeter=0;" edge="1" parent="1" source="5nzVAUaAz8LjXCYsZ58y-17" target="5nzVAUaAz8LjXCYsZ58y-12">
          <mxGeometry relative="1" as="geometry">
            <mxPoint x="288" y="383" as="sourcePoint" />
            <mxPoint x="208" y="383" as="targetPoint" />
          </mxGeometry>
        </mxCell>
        <mxCell id="5nzVAUaAz8LjXCYsZ58y-96" value="fillComments()" style="text;html=1;align=center;verticalAlign=middle;resizable=0;points=[];autosize=1;strokeColor=none;fillColor=none;" vertex="1" parent="1">
          <mxGeometry x="67" y="546" width="95" height="26" as="geometry" />
        </mxCell>
        <mxCell id="5nzVAUaAz8LjXCYsZ58y-101" value="submitForm()" style="text;html=1;align=center;verticalAlign=middle;resizable=0;points=[];autosize=1;strokeColor=none;fillColor=none;" vertex="1" parent="1">
          <mxGeometry x="62.5" y="589" width="89" height="26" as="geometry" />
        </mxCell>
        <mxCell id="5nzVAUaAz8LjXCYsZ58y-103" value="" style="endArrow=none;dashed=1;html=1;dashPattern=1 3;strokeWidth=2;rounded=0;" edge="1" parent="1">
          <mxGeometry width="50" height="50" relative="1" as="geometry">
            <mxPoint x="456" y="634" as="sourcePoint" />
            <mxPoint x="456" y="590" as="targetPoint" />
          </mxGeometry>
        </mxCell>
        <mxCell id="5nzVAUaAz8LjXCYsZ58y-113" value="" style="endArrow=classic;html=1;rounded=0;exitX=0.145;exitY=1.152;exitDx=0;exitDy=0;exitPerimeter=0;" edge="1" parent="1" source="5nzVAUaAz8LjXCYsZ58y-12">
          <mxGeometry width="50" height="50" relative="1" as="geometry">
            <mxPoint x="188" y="196" as="sourcePoint" />
            <mxPoint x="58" y="169" as="targetPoint" />
          </mxGeometry>
        </mxCell>
        <mxCell id="5nzVAUaAz8LjXCYsZ58y-114" value="displayform()" style="text;html=1;align=center;verticalAlign=middle;resizable=0;points=[];autosize=1;strokeColor=none;fillColor=none;" vertex="1" parent="1">
          <mxGeometry x="64.5" y="147" width="87" height="26" as="geometry" />
        </mxCell>
        <mxCell id="5nzVAUaAz8LjXCYsZ58y-115" value="" style="endArrow=classic;html=1;rounded=0;" edge="1" parent="1">
          <mxGeometry width="50" height="50" relative="1" as="geometry">
            <mxPoint x="59" y="196" as="sourcePoint" />
            <mxPoint x="162" y="196" as="targetPoint" />
          </mxGeometry>
        </mxCell>
        <mxCell id="5nzVAUaAz8LjXCYsZ58y-116" value="attachphoto()" style="text;html=1;align=center;verticalAlign=middle;resizable=0;points=[];autosize=1;strokeColor=none;fillColor=none;" vertex="1" parent="1">
          <mxGeometry x="70" y="177" width="89" height="26" as="geometry" />
        </mxCell>
        <mxCell id="5nzVAUaAz8LjXCYsZ58y-122" value="" style="endArrow=none;dashed=1;html=1;dashPattern=1 3;strokeWidth=2;rounded=0;exitX=0.007;exitY=0.45;exitDx=0;exitDy=0;exitPerimeter=0;" edge="1" parent="1" source="5nzVAUaAz8LjXCYsZ58y-86" target="5nzVAUaAz8LjXCYsZ58y-86">
          <mxGeometry width="50" height="50" relative="1" as="geometry">
            <mxPoint x="469" y="771" as="sourcePoint" />
            <mxPoint x="459" y="63" as="targetPoint" />
            <Array as="points">
              <mxPoint x="647" y="380" />
            </Array>
          </mxGeometry>
        </mxCell>
        <mxCell id="5nzVAUaAz8LjXCYsZ58y-124" value="" style="endArrow=classic;html=1;rounded=0;entryX=0.524;entryY=-0.413;entryDx=0;entryDy=0;entryPerimeter=0;exitX=0.5;exitY=1;exitDx=0;exitDy=0;" edge="1" parent="1" source="5nzVAUaAz8LjXCYsZ58y-17" target="5nzVAUaAz8LjXCYsZ58y-12">
          <mxGeometry width="50" height="50" relative="1" as="geometry">
            <mxPoint x="158" y="396" as="sourcePoint" />
            <mxPoint x="285.75" y="400" as="targetPoint" />
          </mxGeometry>
        </mxCell>
        <mxCell id="5nzVAUaAz8LjXCYsZ58y-98" value="fillLocation()" style="text;html=1;align=center;verticalAlign=middle;resizable=0;points=[];autosize=1;strokeColor=none;fillColor=none;" vertex="1" parent="1">
          <mxGeometry x="68.5" y="567" width="83" height="26" as="geometry" />
        </mxCell>
        <mxCell id="5nzVAUaAz8LjXCYsZ58y-136" value="" style="endArrow=none;dashed=1;html=1;dashPattern=1 3;strokeWidth=2;rounded=0;" edge="1" parent="1" target="5nzVAUaAz8LjXCYsZ58y-17">
          <mxGeometry width="50" height="50" relative="1" as="geometry">
            <mxPoint x="311" y="634" as="sourcePoint" />
            <mxPoint x="307" y="53" as="targetPoint" />
          </mxGeometry>
        </mxCell>
        <mxCell id="5nzVAUaAz8LjXCYsZ58y-17" value="" style="rounded=0;whiteSpace=wrap;html=1;direction=south;" vertex="1" parent="1">
          <mxGeometry x="305" y="142" width="11.5" height="463" as="geometry" />
        </mxCell>
        <mxCell id="5nzVAUaAz8LjXCYsZ58y-140" value="" style="endArrow=classic;html=1;rounded=0;entryX=0.581;entryY=0.217;entryDx=0;entryDy=0;entryPerimeter=0;elbow=horizontal;exitX=0.641;exitY=-0.043;exitDx=0;exitDy=0;exitPerimeter=0;" edge="1" parent="1" source="5nzVAUaAz8LjXCYsZ58y-17" target="5nzVAUaAz8LjXCYsZ58y-17">
          <mxGeometry width="50" height="50" relative="1" as="geometry">
            <mxPoint x="331.99699999999996" y="448.99600000000004" as="sourcePoint" />
            <mxPoint x="328.9955" y="415.2039999999999" as="targetPoint" />
            <Array as="points">
              <mxPoint x="380" y="429.18" />
            </Array>
          </mxGeometry>
        </mxCell>
        <mxCell id="5nzVAUaAz8LjXCYsZ58y-144" value="" style="html=1;verticalAlign=bottom;endArrow=open;dashed=1;endSize=8;curved=0;rounded=0;exitX=0.75;exitY=1;exitDx=0;exitDy=0;entryX=0.74;entryY=0.109;entryDx=0;entryDy=0;entryPerimeter=0;" edge="1" parent="1" source="5nzVAUaAz8LjXCYsZ58y-17" target="5nzVAUaAz8LjXCYsZ58y-12">
          <mxGeometry relative="1" as="geometry">
            <mxPoint x="294" y="477" as="sourcePoint" />
            <mxPoint x="165" y="478" as="targetPoint" />
          </mxGeometry>
        </mxCell>
        <mxCell id="5nzVAUaAz8LjXCYsZ58y-152" value="" style="endArrow=classic;html=1;rounded=0;exitX=0.848;exitY=0.978;exitDx=0;exitDy=0;exitPerimeter=0;" edge="1" parent="1" source="5nzVAUaAz8LjXCYsZ58y-12">
          <mxGeometry width="50" height="50" relative="1" as="geometry">
            <mxPoint x="156" y="571" as="sourcePoint" />
            <mxPoint x="53" y="550" as="targetPoint" />
          </mxGeometry>
        </mxCell>
        <mxCell id="5nzVAUaAz8LjXCYsZ58y-153" value="display(photo)" style="text;html=1;align=center;verticalAlign=middle;resizable=0;points=[];autosize=1;strokeColor=none;fillColor=none;" vertex="1" parent="1">
          <mxGeometry x="55" y="527" width="93" height="26" as="geometry" />
        </mxCell>
        <mxCell id="5nzVAUaAz8LjXCYsZ58y-156" value="" style="endArrow=classic;html=1;rounded=0;entryX=0.888;entryY=1.239;entryDx=0;entryDy=0;entryPerimeter=0;" edge="1" parent="1" target="5nzVAUaAz8LjXCYsZ58y-12">
          <mxGeometry width="50" height="50" relative="1" as="geometry">
            <mxPoint x="58" y="568" as="sourcePoint" />
            <mxPoint x="175.5" y="609" as="targetPoint" />
          </mxGeometry>
        </mxCell>
        <mxCell id="5nzVAUaAz8LjXCYsZ58y-157" value="" style="endArrow=classic;html=1;rounded=0;" edge="1" parent="1">
          <mxGeometry width="50" height="50" relative="1" as="geometry">
            <mxPoint x="55" y="592" as="sourcePoint" />
            <mxPoint x="166" y="592" as="targetPoint" />
          </mxGeometry>
        </mxCell>
        <mxCell id="5nzVAUaAz8LjXCYsZ58y-159" value="" style="endArrow=classic;html=1;rounded=0;entryX=0.972;entryY=0.717;entryDx=0;entryDy=0;entryPerimeter=0;" edge="1" parent="1" target="5nzVAUaAz8LjXCYsZ58y-12">
          <mxGeometry width="50" height="50" relative="1" as="geometry">
            <mxPoint x="55" y="614" as="sourcePoint" />
            <mxPoint x="176" y="602" as="targetPoint" />
          </mxGeometry>
        </mxCell>
        <mxCell id="5nzVAUaAz8LjXCYsZ58y-162" value="" style="endArrow=none;dashed=1;html=1;dashPattern=1 3;strokeWidth=2;rounded=0;entryX=1;entryY=0.5;entryDx=0;entryDy=0;" edge="1" parent="1" target="5nzVAUaAz8LjXCYsZ58y-12">
          <mxGeometry width="50" height="50" relative="1" as="geometry">
            <mxPoint x="169" y="1113" as="sourcePoint" />
            <mxPoint x="144" y="559" as="targetPoint" />
          </mxGeometry>
        </mxCell>
        <mxCell id="5nzVAUaAz8LjXCYsZ58y-163" value="" style="endArrow=none;dashed=1;html=1;dashPattern=1 3;strokeWidth=2;rounded=0;entryX=1;entryY=0.5;entryDx=0;entryDy=0;" edge="1" parent="1">
          <mxGeometry width="50" height="50" relative="1" as="geometry">
            <mxPoint x="323" y="1106" as="sourcePoint" />
            <mxPoint x="312.5" y="629" as="targetPoint" />
          </mxGeometry>
        </mxCell>
        <mxCell id="5nzVAUaAz8LjXCYsZ58y-164" value="" style="endArrow=none;dashed=1;html=1;dashPattern=1 3;strokeWidth=2;rounded=0;entryX=1;entryY=0.5;entryDx=0;entryDy=0;" edge="1" parent="1" source="5nzVAUaAz8LjXCYsZ58y-190">
          <mxGeometry width="50" height="50" relative="1" as="geometry">
            <mxPoint x="464" y="1097" as="sourcePoint" />
            <mxPoint x="460" y="753" as="targetPoint" />
          </mxGeometry>
        </mxCell>
        <mxCell id="5nzVAUaAz8LjXCYsZ58y-165" value="" style="endArrow=none;dashed=1;html=1;dashPattern=1 3;strokeWidth=2;rounded=0;entryX=1;entryY=0.5;entryDx=0;entryDy=0;" edge="1" parent="1" source="5nzVAUaAz8LjXCYsZ58y-108">
          <mxGeometry width="50" height="50" relative="1" as="geometry">
            <mxPoint x="607.5" y="1117" as="sourcePoint" />
            <mxPoint x="603.5" y="773" as="targetPoint" />
          </mxGeometry>
        </mxCell>
        <mxCell id="5nzVAUaAz8LjXCYsZ58y-166" value="confirmationmessage" style="rounded=0;whiteSpace=wrap;html=1;" vertex="1" parent="1">
          <mxGeometry x="661" y="30" width="123" height="20" as="geometry" />
        </mxCell>
        <mxCell id="5nzVAUaAz8LjXCYsZ58y-167" value="" style="endArrow=none;dashed=1;html=1;dashPattern=1 3;strokeWidth=2;rounded=0;entryX=0.626;entryY=0.8;entryDx=0;entryDy=0;entryPerimeter=0;" edge="1" parent="1" source="5nzVAUaAz8LjXCYsZ58y-200" target="5nzVAUaAz8LjXCYsZ58y-166">
          <mxGeometry width="50" height="50" relative="1" as="geometry">
            <mxPoint x="753" y="1127" as="sourcePoint" />
            <mxPoint x="742" y="66" as="targetPoint" />
          </mxGeometry>
        </mxCell>
        <mxCell id="5nzVAUaAz8LjXCYsZ58y-169" value="" style="endArrow=none;dashed=1;html=1;dashPattern=1 3;strokeWidth=2;rounded=0;entryX=1;entryY=0.5;entryDx=0;entryDy=0;" edge="1" parent="1">
          <mxGeometry width="50" height="50" relative="1" as="geometry">
            <mxPoint x="53" y="1116" as="sourcePoint" />
            <mxPoint x="53" y="618" as="targetPoint" />
          </mxGeometry>
        </mxCell>
        <mxCell id="5nzVAUaAz8LjXCYsZ58y-170" value="alt" style="shape=umlFrame;whiteSpace=wrap;html=1;pointerEvents=0;recursiveResize=0;container=1;collapsible=0;width=160;" vertex="1" parent="1">
          <mxGeometry x="24" y="651" width="488" height="154" as="geometry" />
        </mxCell>
        <mxCell id="5nzVAUaAz8LjXCYsZ58y-183" value="[missingRequiredFields]" style="text;html=1;align=center;verticalAlign=middle;resizable=0;points=[];autosize=1;strokeColor=none;fillColor=none;" vertex="1" parent="5nzVAUaAz8LjXCYsZ58y-170">
          <mxGeometry x="1" y="31" width="146" height="26" as="geometry" />
        </mxCell>
        <mxCell id="5nzVAUaAz8LjXCYsZ58y-185" value="" style="rounded=0;whiteSpace=wrap;html=1;direction=south;" vertex="1" parent="5nzVAUaAz8LjXCYsZ58y-170">
          <mxGeometry x="139" y="60" width="11.5" height="82" as="geometry" />
        </mxCell>
        <mxCell id="5nzVAUaAz8LjXCYsZ58y-184" value="" style="endArrow=classic;html=1;rounded=0;exitX=0.341;exitY=0.826;exitDx=0;exitDy=0;exitPerimeter=0;" edge="1" parent="5nzVAUaAz8LjXCYsZ58y-170" source="5nzVAUaAz8LjXCYsZ58y-185">
          <mxGeometry width="50" height="50" relative="1" as="geometry">
            <mxPoint x="122" y="76" as="sourcePoint" />
            <mxPoint x="32" y="88" as="targetPoint" />
          </mxGeometry>
        </mxCell>
        <mxCell id="5nzVAUaAz8LjXCYsZ58y-186" value="display" style="text;html=1;align=center;verticalAlign=middle;resizable=0;points=[];autosize=1;strokeColor=none;fillColor=none;" vertex="1" parent="5nzVAUaAz8LjXCYsZ58y-170">
          <mxGeometry x="55" y="67" width="55" height="26" as="geometry" />
        </mxCell>
        <mxCell id="5nzVAUaAz8LjXCYsZ58y-188" value="completion of elements" style="text;html=1;align=center;verticalAlign=middle;resizable=0;points=[];autosize=1;strokeColor=none;fillColor=none;" vertex="1" parent="5nzVAUaAz8LjXCYsZ58y-170">
          <mxGeometry x="6" y="86" width="141" height="26" as="geometry" />
        </mxCell>
        <mxCell id="5nzVAUaAz8LjXCYsZ58y-189" value="" style="endArrow=classic;html=1;rounded=0;entryX=0.75;entryY=1;entryDx=0;entryDy=0;" edge="1" parent="5nzVAUaAz8LjXCYsZ58y-170" target="5nzVAUaAz8LjXCYsZ58y-190">
          <mxGeometry width="50" height="50" relative="1" as="geometry">
            <mxPoint x="153" y="123" as="sourcePoint" />
            <mxPoint x="263" y="123" as="targetPoint" />
          </mxGeometry>
        </mxCell>
        <mxCell id="5nzVAUaAz8LjXCYsZ58y-187" value="" style="endArrow=classic;html=1;rounded=0;entryX=0.598;entryY=1;entryDx=0;entryDy=0;entryPerimeter=0;" edge="1" parent="1" target="5nzVAUaAz8LjXCYsZ58y-185">
          <mxGeometry width="50" height="50" relative="1" as="geometry">
            <mxPoint x="53" y="760" as="sourcePoint" />
            <mxPoint x="66" y="749" as="targetPoint" />
          </mxGeometry>
        </mxCell>
        <mxCell id="5nzVAUaAz8LjXCYsZ58y-191" value="" style="endArrow=none;dashed=1;html=1;dashPattern=1 3;strokeWidth=2;rounded=0;entryX=0.5;entryY=1;entryDx=0;entryDy=0;" edge="1" parent="1" target="5nzVAUaAz8LjXCYsZ58y-190">
          <mxGeometry width="50" height="50" relative="1" as="geometry">
            <mxPoint x="459" y="761" as="sourcePoint" />
            <mxPoint x="449" y="53" as="targetPoint" />
          </mxGeometry>
        </mxCell>
        <mxCell id="5nzVAUaAz8LjXCYsZ58y-192" value="" style="endArrow=none;dashed=1;html=1;dashPattern=1 3;strokeWidth=2;rounded=0;entryX=1;entryY=0.5;entryDx=0;entryDy=0;" edge="1" parent="1" target="5nzVAUaAz8LjXCYsZ58y-190">
          <mxGeometry width="50" height="50" relative="1" as="geometry">
            <mxPoint x="464" y="1097" as="sourcePoint" />
            <mxPoint x="460" y="753" as="targetPoint" />
          </mxGeometry>
        </mxCell>
        <mxCell id="5nzVAUaAz8LjXCYsZ58y-190" value="" style="rounded=0;whiteSpace=wrap;html=1;direction=south;" vertex="1" parent="1">
          <mxGeometry x="454" y="709" width="11.5" height="82" as="geometry" />
        </mxCell>
        <mxCell id="5nzVAUaAz8LjXCYsZ58y-193" value="submitForm()" style="text;html=1;align=center;verticalAlign=middle;resizable=0;points=[];autosize=1;strokeColor=none;fillColor=none;" vertex="1" parent="1">
          <mxGeometry x="311" y="750" width="89" height="26" as="geometry" />
        </mxCell>
        <mxCell id="5nzVAUaAz8LjXCYsZ58y-194" value="" style="endArrow=none;dashed=1;html=1;dashPattern=1 3;strokeWidth=2;rounded=0;entryX=1;entryY=0.5;entryDx=0;entryDy=0;" edge="1" parent="1" target="5nzVAUaAz8LjXCYsZ58y-108">
          <mxGeometry width="50" height="50" relative="1" as="geometry">
            <mxPoint x="607.5" y="1117" as="sourcePoint" />
            <mxPoint x="603.5" y="773" as="targetPoint" />
          </mxGeometry>
        </mxCell>
        <mxCell id="5nzVAUaAz8LjXCYsZ58y-108" value="" style="rounded=0;whiteSpace=wrap;html=1;direction=south;" vertex="1" parent="1">
          <mxGeometry x="598" y="857" width="11.5" height="247" as="geometry" />
        </mxCell>
        <mxCell id="5nzVAUaAz8LjXCYsZ58y-195" value="" style="rounded=0;whiteSpace=wrap;html=1;direction=south;" vertex="1" parent="1">
          <mxGeometry x="458" y="891" width="11.5" height="82" as="geometry" />
        </mxCell>
        <mxCell id="5nzVAUaAz8LjXCYsZ58y-196" value="" style="endArrow=classic;html=1;rounded=0;entryX=0.215;entryY=0.565;entryDx=0;entryDy=0;exitX=0.25;exitY=0;exitDx=0;exitDy=0;entryPerimeter=0;" edge="1" parent="1" source="5nzVAUaAz8LjXCYsZ58y-195" target="5nzVAUaAz8LjXCYsZ58y-108">
          <mxGeometry width="50" height="50" relative="1" as="geometry">
            <mxPoint x="465.5" y="896" as="sourcePoint" />
            <mxPoint x="742.5" y="893" as="targetPoint" />
          </mxGeometry>
        </mxCell>
        <mxCell id="5nzVAUaAz8LjXCYsZ58y-197" value="createReport" style="text;html=1;align=center;verticalAlign=middle;resizable=0;points=[];autosize=1;strokeColor=none;fillColor=none;" vertex="1" parent="1">
          <mxGeometry x="482" y="889" width="87" height="26" as="geometry" />
        </mxCell>
        <mxCell id="5nzVAUaAz8LjXCYsZ58y-198" value="" style="endArrow=classic;html=1;rounded=0;exitX=0.352;exitY=0.043;exitDx=0;exitDy=0;exitPerimeter=0;" edge="1" parent="1" source="5nzVAUaAz8LjXCYsZ58y-108">
          <mxGeometry width="50" height="50" relative="1" as="geometry">
            <mxPoint x="611" y="929" as="sourcePoint" />
            <mxPoint x="611" y="986" as="targetPoint" />
            <Array as="points">
              <mxPoint x="635" y="933" />
            </Array>
          </mxGeometry>
        </mxCell>
        <mxCell id="5nzVAUaAz8LjXCYsZ58y-199" value="setStatus" style="text;html=1;align=center;verticalAlign=middle;resizable=0;points=[];autosize=1;strokeColor=none;fillColor=none;" vertex="1" parent="1">
          <mxGeometry x="613" y="911" width="68" height="26" as="geometry" />
        </mxCell>
        <mxCell id="5nzVAUaAz8LjXCYsZ58y-201" value="" style="endArrow=none;dashed=1;html=1;dashPattern=1 3;strokeWidth=2;rounded=0;entryX=0.626;entryY=0.8;entryDx=0;entryDy=0;entryPerimeter=0;" edge="1" parent="1" target="5nzVAUaAz8LjXCYsZ58y-200">
          <mxGeometry width="50" height="50" relative="1" as="geometry">
            <mxPoint x="753" y="1127" as="sourcePoint" />
            <mxPoint x="738" y="46" as="targetPoint" />
          </mxGeometry>
        </mxCell>
        <mxCell id="5nzVAUaAz8LjXCYsZ58y-200" value="" style="rounded=0;whiteSpace=wrap;html=1;direction=south;" vertex="1" parent="1">
          <mxGeometry x="747" y="959" width="11.5" height="180" as="geometry" />
        </mxCell>
        <mxCell id="5nzVAUaAz8LjXCYsZ58y-203" value="" style="endArrow=classic;html=1;rounded=0;exitX=0.75;exitY=0;exitDx=0;exitDy=0;" edge="1" parent="1" source="5nzVAUaAz8LjXCYsZ58y-108">
          <mxGeometry width="50" height="50" relative="1" as="geometry">
            <mxPoint x="631" y="1045" as="sourcePoint" />
            <mxPoint x="746" y="1042" as="targetPoint" />
          </mxGeometry>
        </mxCell>
        <mxCell id="5nzVAUaAz8LjXCYsZ58y-204" value="display" style="text;html=1;align=center;verticalAlign=middle;resizable=0;points=[];autosize=1;strokeColor=none;fillColor=none;" vertex="1" parent="1">
          <mxGeometry x="661" y="1021" width="55" height="26" as="geometry" />
        </mxCell>
        <mxCell id="5nzVAUaAz8LjXCYsZ58y-205" value="" style="endArrow=classic;html=1;rounded=0;exitX=0.922;exitY=0.913;exitDx=0;exitDy=0;exitPerimeter=0;" edge="1" parent="1" source="5nzVAUaAz8LjXCYsZ58y-200">
          <mxGeometry width="50" height="50" relative="1" as="geometry">
            <mxPoint x="620" y="1052" as="sourcePoint" />
            <mxPoint x="53" y="1125" as="targetPoint" />
          </mxGeometry>
        </mxCell>
        <mxCell id="5nzVAUaAz8LjXCYsZ58y-206" value="" style="endArrow=none;dashed=1;html=1;dashPattern=1 3;strokeWidth=2;rounded=0;entryX=1;entryY=0.5;entryDx=0;entryDy=0;" edge="1" parent="1">
          <mxGeometry width="50" height="50" relative="1" as="geometry">
            <mxPoint x="54" y="1169" as="sourcePoint" />
            <mxPoint x="52" y="1076" as="targetPoint" />
          </mxGeometry>
        </mxCell>
        <mxCell id="5nzVAUaAz8LjXCYsZ58y-207" value="ShowMessage()" style="text;html=1;align=center;verticalAlign=middle;resizable=0;points=[];autosize=1;strokeColor=none;fillColor=none;" vertex="1" parent="1">
          <mxGeometry x="52" y="1095" width="105" height="26" as="geometry" />
        </mxCell>
        <mxCell id="5nzVAUaAz8LjXCYsZ58y-208" value="χρήστης" style="text;html=1;align=center;verticalAlign=middle;resizable=0;points=[];autosize=1;strokeColor=none;fillColor=none;" vertex="1" parent="1">
          <mxGeometry x="24" y="94" width="62" height="26" as="geometry" />
        </mxCell>
      </root>
    </mxGraphModel>
  </diagram>
</mxfile>
